# xmcd
#
# Track frame offsets: 
#        150
#        14712
#        27719
#        46419
#        60119
#        76932
#        90425
#        104600
#        114088
#        137075
#        147550
#        168675
#        179913
#        199193
#        217918
#        240106
#        260106
#
# Disc length: 3696 seconds
#
# Revision: 0
# Processed by: cddbd v1.4PL0 Copyright (c) Steve Scherf et al.
# Submitted via: ExactAudioCopy v0.90b4
#
DISCID=f30e6e11
DTITLE=Various Artist - Country Songs of American 1
DYEAR=2000
DGENRE=Country
TTITLE0=The Sound Of Silence
TTITLE1=Blowing In The Wind
TTITLE2=Let It Be
TTITLE3=Cotton Field
TTITLE4=All Out Of Love
TTITLE5=Windflowers
TTITLE6=Green Green Grass Of Home
TTITLE7=Yesterday
TTITLE8=Sunshine On My Shoulder
TTITLE9=Micheal, Row The Boat
TTITLE10=I Don't Want To Talk About It
TTITLE11=Rain And Tears
TTITLE12=Streets Of London
TTITLE13=Sometimes When We Touch
TTITLE14=Always
TTITLE15=How Can I Tell Her
TTITLE16=Love Is Love
EXTD=
EXTT0=
EXTT1=
EXTT2=
EXTT3=
EXTT4=
EXTT5=
EXTT6=
EXTT7=
EXTT8=
EXTT9=
EXTT10=
EXTT11=
EXTT12=
EXTT13=
EXTT14=
EXTT15=
EXTT16=
PLAYORDER=
